<svg width="110" height="38" viewBox="0 0 110 38" fill="none" xmlns="http://www.w3.org/2000/svg">
<path d="M0 5.5C0 2.73858 2.23858 0.5 5 0.5H105C107.761 0.5 110 2.73858 110 5.5V32.5C110 35.2614 107.761 37.5 105 37.5H5C2.23858 37.5 0 35.2614 0 32.5V5.5Z" fill="#1AA29C"/>
<path d="M20.4886 12.8636V20.5057C20.4886 21.9432 19.3352 22.7784 17.8693 22.7784C16.4091 22.7784 15.2557 21.9432 15.2557 20.5057V12.8636H13.1477V20.5568C13.1477 23.1932 15.1705 24.6761 17.8693 24.6761C20.5568 24.6761 22.5909 23.1932 22.5909 20.5568V12.8636H20.4886ZM26.848 19.3864C26.848 18.125 27.6094 17.3977 28.6946 17.3977C29.7571 17.3977 30.3935 18.0966 30.3935 19.2614V24.5H32.4503V18.9432C32.456 16.8523 31.2628 15.6591 29.4616 15.6591C28.1548 15.6591 27.2571 16.2841 26.8594 17.2557H26.7571V15.7727H24.7912V24.5H26.848V19.3864ZM34.5412 24.5H36.598V15.7727H34.5412V24.5ZM35.5753 14.5341C36.2287 14.5341 36.7628 14.0341 36.7628 13.4205C36.7628 12.8011 36.2287 12.3011 35.5753 12.3011C34.9162 12.3011 34.3821 12.8011 34.3821 13.4205C34.3821 14.0341 34.9162 14.5341 35.5753 14.5341ZM45.6108 18.0795C45.3267 16.6023 44.1449 15.6591 42.0994 15.6591C39.9972 15.6591 38.5653 16.6932 38.571 18.3068C38.5653 19.5795 39.3494 20.4205 41.0256 20.767L42.5142 21.0795C43.3153 21.2557 43.6903 21.5795 43.6903 22.0739C43.6903 22.6705 43.0426 23.1193 42.0653 23.1193C41.1222 23.1193 40.5085 22.7102 40.3324 21.9261L38.3267 22.1193C38.5824 23.7216 39.929 24.6705 42.071 24.6705C44.2528 24.6705 45.7926 23.5398 45.7983 21.8864C45.7926 20.642 44.9915 19.8807 43.3438 19.5227L41.8551 19.2045C40.9688 19.0057 40.6165 18.6989 40.6222 18.1932C40.6165 17.6023 41.2699 17.1932 42.1278 17.1932C43.0767 17.1932 43.5767 17.7102 43.7358 18.2841L45.6108 18.0795ZM51.3011 24.6705C53.4943 24.6705 54.892 23.3693 55.0398 21.517H53.0739C52.8977 22.4545 52.2216 22.9943 51.3182 22.9943C50.0341 22.9943 49.2045 21.9205 49.2045 20.1364C49.2045 18.375 50.0511 17.3182 51.3182 17.3182C52.3068 17.3182 52.9148 17.9545 53.0739 18.7955H55.0398C54.8977 16.9034 53.4205 15.6591 51.2898 15.6591C48.733 15.6591 47.1193 17.5057 47.1193 20.1705C47.1193 22.8125 48.6932 24.6705 51.3011 24.6705ZM56.7287 24.5H58.7855V15.7727H56.7287V24.5ZM57.7628 14.5341C58.4162 14.5341 58.9503 14.0341 58.9503 13.4205C58.9503 12.8011 58.4162 12.3011 57.7628 12.3011C57.1037 12.3011 56.5696 12.8011 56.5696 13.4205C56.5696 14.0341 57.1037 14.5341 57.7628 14.5341ZM65.2585 15.7727H63.5369V13.6818H61.4801V15.7727H60.2415V17.3636H61.4801V22.2159C61.4688 23.858 62.6619 24.6648 64.2074 24.6193C64.7926 24.6023 65.196 24.4886 65.4176 24.4148L65.071 22.8068C64.9574 22.8352 64.7244 22.8864 64.4688 22.8864C63.9517 22.8864 63.5369 22.7045 63.5369 21.875V17.3636H65.2585V15.7727ZM66.9787 24.5H69.0355V15.7727H66.9787V24.5ZM68.0128 14.5341C68.6662 14.5341 69.2003 14.0341 69.2003 13.4205C69.2003 12.8011 68.6662 12.3011 68.0128 12.3011C67.3537 12.3011 66.8196 12.8011 66.8196 13.4205C66.8196 14.0341 67.3537 14.5341 68.0128 14.5341Z" fill="white"/>
<path d="M88.5 26.9167C92.8723 26.9167 96.4167 23.3723 96.4167 19C96.4167 14.6277 92.8723 11.0833 88.5 11.0833C84.1278 11.0833 80.5833 14.6277 80.5833 19C80.5833 23.3723 84.1278 26.9167 88.5 26.9167Z" stroke="white" stroke-width="2" stroke-linecap="round" stroke-linejoin="round"/>
<path d="M88.5 22.1667L91.6667 19L88.5 15.8333" stroke="white" stroke-width="2" stroke-linecap="round" stroke-linejoin="round"/>
<path d="M85.3333 19H91.6667" stroke="white" stroke-width="2" stroke-linecap="round" stroke-linejoin="round"/>
</svg>
