<svg width="1440" height="101" viewBox="0 0 1440 101" fill="none" xmlns="http://www.w3.org/2000/svg">
<path d="M1135.74 63.574V65.87H1134.6V56.196H1135.55L1135.65 57.064H1135.69C1136.01 56.7653 1136.37 56.518 1136.78 56.322C1137.2 56.126 1137.62 56.028 1138.04 56.028C1138.5 56.028 1138.9 56.112 1139.24 56.28C1139.6 56.4387 1139.89 56.672 1140.13 56.98C1140.37 57.2787 1140.55 57.6427 1140.67 58.072C1140.79 58.492 1140.85 58.968 1140.85 59.5C1140.85 60.0787 1140.77 60.5967 1140.6 61.054C1140.43 61.502 1140.21 61.8847 1139.92 62.202C1139.64 62.5193 1139.31 62.762 1138.94 62.93C1138.56 63.0887 1138.17 63.168 1137.76 63.168C1137.44 63.168 1137.1 63.0933 1136.72 62.944C1136.36 62.7853 1136.02 62.566 1135.72 62.286L1135.74 63.574ZM1135.74 61.404C1136.07 61.6933 1136.4 61.8987 1136.72 62.02C1137.05 62.1413 1137.33 62.202 1137.56 62.202C1138.18 62.202 1138.68 61.964 1139.08 61.488C1139.47 61.012 1139.66 60.3493 1139.66 59.5C1139.66 59.1267 1139.63 58.786 1139.55 58.478C1139.48 58.17 1139.36 57.9087 1139.2 57.694C1139.05 57.47 1138.86 57.2973 1138.61 57.176C1138.37 57.0547 1138.08 56.994 1137.75 56.994C1137.45 56.994 1137.13 57.078 1136.78 57.246C1136.44 57.4047 1136.1 57.6613 1135.74 58.016V61.404ZM1146.17 59.612C1146.17 59.0427 1146.26 58.5387 1146.44 58.1C1146.62 57.652 1146.87 57.274 1147.18 56.966C1147.49 56.658 1147.84 56.4247 1148.24 56.266C1148.65 56.1073 1149.08 56.028 1149.53 56.028C1149.98 56.028 1150.4 56.1073 1150.8 56.266C1151.21 56.4247 1151.57 56.658 1151.88 56.966C1152.19 57.274 1152.43 57.652 1152.61 58.1C1152.8 58.5387 1152.89 59.0427 1152.89 59.612C1152.89 60.172 1152.8 60.676 1152.61 61.124C1152.43 61.5627 1152.19 61.936 1151.88 62.244C1151.57 62.5427 1151.21 62.7713 1150.8 62.93C1150.4 63.0887 1149.98 63.168 1149.53 63.168C1149.08 63.168 1148.65 63.0887 1148.24 62.93C1147.84 62.7713 1147.49 62.5427 1147.18 62.244C1146.87 61.936 1146.62 61.5627 1146.44 61.124C1146.26 60.676 1146.17 60.172 1146.17 59.612ZM1147.36 59.612C1147.36 60.004 1147.41 60.3587 1147.51 60.676C1147.62 60.9933 1147.76 61.2687 1147.95 61.502C1148.14 61.726 1148.37 61.9033 1148.63 62.034C1148.9 62.1553 1149.2 62.216 1149.53 62.216C1149.86 62.216 1150.15 62.1553 1150.41 62.034C1150.68 61.9033 1150.91 61.726 1151.1 61.502C1151.29 61.2687 1151.44 60.9933 1151.55 60.676C1151.65 60.3587 1151.7 60.004 1151.7 59.612C1151.7 59.22 1151.65 58.8653 1151.55 58.548C1151.44 58.2213 1151.29 57.9413 1151.1 57.708C1150.91 57.4747 1150.68 57.2973 1150.41 57.176C1150.15 57.0453 1149.86 56.98 1149.53 56.98C1149.2 56.98 1148.9 57.0453 1148.63 57.176C1148.37 57.2973 1148.14 57.4747 1147.95 57.708C1147.76 57.9413 1147.62 58.2213 1147.51 58.548C1147.41 58.8653 1147.36 59.22 1147.36 59.612ZM1157.48 56.196H1158.65L1159.48 60.13C1159.54 60.4567 1159.6 60.774 1159.66 61.082C1159.72 61.39 1159.77 61.7027 1159.81 62.02H1159.87C1159.94 61.7027 1160 61.39 1160.07 61.082C1160.13 60.7647 1160.2 60.4473 1160.28 60.13L1161.1 56.602H1162.08L1162.92 60.13C1163 60.4567 1163.07 60.774 1163.13 61.082C1163.2 61.39 1163.27 61.7027 1163.34 62.02H1163.4C1163.46 61.7027 1163.52 61.39 1163.57 61.082C1163.62 60.774 1163.68 60.4567 1163.73 60.13L1164.56 56.196H1165.65L1164.17 63H1162.78L1161.97 59.556C1161.9 59.2293 1161.84 58.9073 1161.79 58.59C1161.73 58.2633 1161.67 57.9273 1161.59 57.582H1161.54C1161.48 57.8807 1161.42 58.1887 1161.37 58.506C1161.31 58.8233 1161.24 59.178 1161.16 59.57L1160.37 63H1159L1157.48 56.196ZM1170.36 59.612C1170.36 59.052 1170.46 58.5527 1170.66 58.114C1170.85 57.666 1171.11 57.288 1171.43 56.98C1171.75 56.672 1172.12 56.4387 1172.53 56.28C1172.95 56.112 1173.38 56.028 1173.82 56.028C1174.31 56.028 1174.74 56.1073 1175.12 56.266C1175.51 56.4153 1175.83 56.63 1176.09 56.91C1176.36 57.19 1176.57 57.526 1176.71 57.918C1176.85 58.31 1176.92 58.744 1176.92 59.22C1176.92 59.3413 1176.91 59.4627 1176.9 59.584C1176.9 59.696 1176.89 59.794 1176.87 59.878H1171.55C1171.56 60.242 1171.63 60.5687 1171.76 60.858C1171.9 61.1473 1172.09 61.3947 1172.31 61.6C1172.54 61.8053 1172.81 61.964 1173.12 62.076C1173.44 62.188 1173.78 62.244 1174.16 62.244C1174.56 62.244 1174.92 62.188 1175.25 62.076C1175.59 61.964 1175.91 61.81 1176.23 61.614L1176.64 62.37C1176.3 62.5847 1175.92 62.7713 1175.49 62.93C1175.06 63.0887 1174.57 63.168 1174.02 63.168C1173.51 63.168 1173.04 63.0887 1172.59 62.93C1172.15 62.762 1171.76 62.5287 1171.43 62.23C1171.1 61.922 1170.84 61.5487 1170.64 61.11C1170.46 60.6713 1170.36 60.172 1170.36 59.612ZM1175.85 59.052C1175.85 58.3707 1175.67 57.848 1175.32 57.484C1174.97 57.12 1174.47 56.938 1173.84 56.938C1173.56 56.938 1173.29 56.9847 1173.02 57.078C1172.77 57.1713 1172.54 57.3113 1172.34 57.498C1172.13 57.6753 1171.96 57.8947 1171.82 58.156C1171.68 58.4173 1171.59 58.716 1171.54 59.052H1175.85ZM1183.48 56.196H1184.43L1184.53 57.806H1184.57C1184.92 57.2553 1185.36 56.8213 1185.87 56.504C1186.39 56.1867 1186.97 56.028 1187.61 56.028C1187.86 56.028 1188.09 56.0513 1188.31 56.098C1188.52 56.1353 1188.74 56.2053 1188.95 56.308L1188.68 57.302C1188.44 57.218 1188.24 57.1573 1188.07 57.12C1187.91 57.0827 1187.7 57.064 1187.42 57.064C1186.91 57.064 1186.42 57.2133 1185.94 57.512C1185.47 57.8013 1185.04 58.3007 1184.62 59.01V63H1183.48V56.196ZM1194.43 59.612C1194.43 59.052 1194.53 58.5527 1194.73 58.114C1194.92 57.666 1195.18 57.288 1195.5 56.98C1195.82 56.672 1196.19 56.4387 1196.6 56.28C1197.02 56.112 1197.45 56.028 1197.89 56.028C1198.38 56.028 1198.81 56.1073 1199.19 56.266C1199.58 56.4153 1199.9 56.63 1200.16 56.91C1200.43 57.19 1200.64 57.526 1200.78 57.918C1200.92 58.31 1200.99 58.744 1200.99 59.22C1200.99 59.3413 1200.98 59.4627 1200.97 59.584C1200.97 59.696 1200.96 59.794 1200.94 59.878H1195.62C1195.63 60.242 1195.7 60.5687 1195.83 60.858C1195.97 61.1473 1196.16 61.3947 1196.38 61.6C1196.61 61.8053 1196.88 61.964 1197.19 62.076C1197.51 62.188 1197.85 62.244 1198.23 62.244C1198.63 62.244 1198.99 62.188 1199.32 62.076C1199.66 61.964 1199.98 61.81 1200.3 61.614L1200.71 62.37C1200.37 62.5847 1199.99 62.7713 1199.56 62.93C1199.13 63.0887 1198.64 63.168 1198.09 63.168C1197.58 63.168 1197.11 63.0887 1196.66 62.93C1196.22 62.762 1195.83 62.5287 1195.5 62.23C1195.17 61.922 1194.91 61.5487 1194.71 61.11C1194.53 60.6713 1194.43 60.172 1194.43 59.612ZM1199.92 59.052C1199.92 58.3707 1199.74 57.848 1199.39 57.484C1199.03 57.12 1198.54 56.938 1197.91 56.938C1197.63 56.938 1197.35 56.9847 1197.09 57.078C1196.84 57.1713 1196.61 57.3113 1196.41 57.498C1196.2 57.6753 1196.03 57.8947 1195.89 58.156C1195.75 58.4173 1195.66 58.716 1195.61 59.052H1199.92ZM1206.34 59.612C1206.34 59.0613 1206.43 58.5667 1206.59 58.128C1206.77 57.68 1207 57.302 1207.28 56.994C1207.57 56.686 1207.9 56.448 1208.27 56.28C1208.65 56.112 1209.03 56.028 1209.44 56.028C1209.86 56.028 1210.22 56.1073 1210.54 56.266C1210.86 56.4247 1211.18 56.6393 1211.49 56.91L1211.45 55.65V53.032H1212.6V63H1211.65L1211.55 62.104H1211.51C1211.23 62.3933 1210.89 62.6453 1210.5 62.86C1210.12 63.0653 1209.72 63.168 1209.3 63.168C1208.85 63.168 1208.44 63.0887 1208.08 62.93C1207.72 62.7713 1207.42 62.5427 1207.15 62.244C1206.89 61.936 1206.69 61.5627 1206.55 61.124C1206.41 60.6853 1206.34 60.1813 1206.34 59.612ZM1207.53 59.598C1207.53 60.4193 1207.7 61.0587 1208.05 61.516C1208.4 61.9733 1208.9 62.202 1209.53 62.202C1210.21 62.202 1210.85 61.8613 1211.45 61.18V57.792C1211.14 57.5027 1210.84 57.2973 1210.54 57.176C1210.25 57.0547 1209.96 56.994 1209.66 56.994C1209.36 56.994 1209.08 57.0593 1208.82 57.19C1208.57 57.3113 1208.34 57.4887 1208.15 57.722C1207.96 57.946 1207.81 58.2167 1207.7 58.534C1207.59 58.8513 1207.53 59.206 1207.53 59.598ZM1230.87 53.032H1232.02V55.748L1231.99 57.064C1232.32 56.7467 1232.68 56.4947 1233.08 56.308C1233.5 56.1213 1233.9 56.028 1234.3 56.028C1234.76 56.028 1235.17 56.112 1235.52 56.28C1235.88 56.4387 1236.17 56.672 1236.4 56.98C1236.65 57.2787 1236.83 57.6427 1236.95 58.072C1237.07 58.492 1237.13 58.9633 1237.13 59.486C1237.13 60.0647 1237.05 60.5827 1236.88 61.04C1236.71 61.4973 1236.48 61.8847 1236.19 62.202C1235.91 62.5193 1235.59 62.762 1235.21 62.93C1234.84 63.0887 1234.45 63.168 1234.05 63.168C1233.72 63.168 1233.37 63.0887 1232.99 62.93C1232.61 62.762 1232.26 62.5333 1231.94 62.244H1231.89L1231.8 63H1230.87V53.032ZM1232.02 61.404C1232.35 61.6933 1232.67 61.8987 1233 62.02C1233.34 62.1413 1233.63 62.202 1233.87 62.202C1234.17 62.202 1234.44 62.1413 1234.69 62.02C1234.95 61.8893 1235.17 61.712 1235.35 61.488C1235.54 61.2547 1235.68 60.97 1235.79 60.634C1235.89 60.298 1235.94 59.92 1235.94 59.5C1235.94 59.1267 1235.9 58.786 1235.83 58.478C1235.75 58.17 1235.64 57.9087 1235.48 57.694C1235.33 57.47 1235.13 57.2973 1234.89 57.176C1234.65 57.0547 1234.36 56.994 1234.02 56.994C1233.72 56.994 1233.4 57.078 1233.06 57.246C1232.72 57.4047 1232.38 57.6613 1232.02 58.016V61.404ZM1242.78 64.876C1242.87 64.904 1242.97 64.9273 1243.08 64.946C1243.19 64.9647 1243.29 64.974 1243.4 64.974C1243.87 64.974 1244.26 64.834 1244.56 64.554C1244.86 64.2833 1245.09 63.938 1245.26 63.518L1245.47 63.014L1242.29 56.196H1243.45L1245.12 59.962C1245.25 60.2607 1245.39 60.5827 1245.53 60.928C1245.67 61.2733 1245.82 61.6093 1245.96 61.936H1246.02C1246.14 61.6093 1246.26 61.278 1246.38 60.942C1246.51 60.5967 1246.63 60.27 1246.74 59.962L1248.23 56.196H1249.32L1246.32 63.56C1246.19 63.896 1246.04 64.2087 1245.88 64.498C1245.71 64.7873 1245.51 65.0347 1245.27 65.24C1245.04 65.4547 1244.77 65.6227 1244.46 65.744C1244.16 65.8653 1243.82 65.926 1243.44 65.926C1243.1 65.926 1242.8 65.8793 1242.54 65.786L1242.78 64.876Z" fill="#D3D3D5"/>
<g clip-path="url(#clip0)">
<g opacity="0.5">
<path opacity="0.5" d="M1331.42 49.2298L1310.9 29H1316.21L1334.08 46.6073L1331.42 49.2298Z" fill="#D3D3D5"/>
</g>
<path d="M1320.83 49.2298L1309.25 37.8004H1314.55L1323.48 46.609L1320.83 49.2298Z" fill="#D3D3D5"/>
<g opacity="0.5">
<path opacity="0.5" d="M1323.48 46.599L1305.76 64.1128L1300.5 64.0778L1320.83 43.9782L1323.48 46.599Z" fill="#D3D3D5"/>
</g>
<path d="M1334.08 46.599L1307.35 73H1302.05L1331.42 43.9782L1334.08 46.599Z" fill="#D3D3D5"/>
<path d="M1291.52 58.868H1296.7V59.9781H1292.86V62.9778H1297.78V64.0778H1291.52" fill="#D3D3D5"/>
<path d="M1291.52 55.1172H1297.55V56.2139H1291.52" fill="#D3D3D5"/>
<path d="M1336.76 56.2156H1333.95V64.0778H1332.61V56.2156H1329.8V55.1155H1336.76V56.2156Z" fill="#D3D3D5"/>
<path d="M1357.02 59.5959C1357.01 60.495 1356.74 61.3721 1356.23 62.1163C1355.72 62.8606 1354.99 63.4388 1354.15 63.778C1353.31 64.1173 1352.38 64.2024 1351.49 64.0226C1350.6 63.8428 1349.78 63.4062 1349.14 62.7678C1348.5 62.1294 1348.07 61.3178 1347.89 60.4354C1347.72 59.5529 1347.81 58.639 1348.16 57.809C1348.51 56.979 1349.1 56.27 1349.86 55.7713C1350.61 55.2727 1351.5 55.0068 1352.41 55.0071C1353.02 55.0053 1353.63 55.123 1354.19 55.3534C1354.75 55.5838 1355.26 55.9224 1355.69 56.3493C1356.12 56.7763 1356.46 57.2832 1356.68 57.8405C1356.91 58.3978 1357.03 58.9945 1357.02 59.5959ZM1349.15 59.5959C1349.15 61.432 1350.5 63.1013 1352.41 63.1013C1354.33 63.1013 1355.68 61.432 1355.68 59.5959C1355.68 57.7597 1354.33 56.1054 1352.41 56.1054C1350.5 56.1054 1349.15 57.7747 1349.15 59.5959Z" fill="#D3D3D5"/>
<path d="M1372.81 61.7175H1370.63V64.0828H1369.28V55.1155H1372.81C1374.58 55.1272 1376.01 56.5962 1376.01 58.414C1376.01 60.2318 1374.57 61.6991 1372.81 61.7175ZM1374.66 58.419C1374.66 57.2105 1373.83 56.2089 1372.78 56.2089H1370.63V60.6057H1372.78C1373.82 60.6057 1374.66 59.6142 1374.66 58.409" fill="#D3D3D5"/>
<path d="M1278.9 55.1155V61.2451C1278.9 62.6906 1278.18 64.1963 1275.96 64.1963C1273.74 64.1963 1273 62.6906 1273 61.2451H1274.34C1274.34 61.7826 1274.39 63.0963 1275.96 63.0963C1277.53 63.0963 1277.54 61.7826 1277.54 61.2451V55.1155H1278.9Z" fill="#D3D3D5"/>
</g>
<defs>
<clipPath id="clip0">
<rect width="103" height="44" fill="white" transform="translate(1276 29)"/>
</clipPath>
</defs>
</svg>
