<svg width="655" height="159" viewBox="0 0 655 159" fill="none" xmlns="http://www.w3.org/2000/svg">
<g filter="url(#filter0_d)">
<rect x="19" y="14" width="606.193" height="111" rx="14" fill="white"/>
<rect x="46" y="75" width="553" height="8" rx="4" fill="#D3D3D5"/>
<rect x="46" y="75" width="385" height="8" rx="4" fill="#1AA29C"/>
<path d="M59.6967 35.3636H54.9332L48.0646 39.7763V44.3643L54.5284 40.2351H54.6903V63H59.6967V35.3636ZM76.929 63.5263C83.5952 63.5398 87.576 58.277 87.576 49.2088C87.576 40.1946 83.5682 34.9858 76.929 34.9858C70.2898 34.9858 66.2955 40.1811 66.282 49.2088C66.282 58.2635 70.2628 63.5263 76.929 63.5263ZM76.929 59.3026C73.4879 59.3026 71.3288 55.848 71.3423 49.2088C71.3558 42.6236 73.5014 39.1555 76.929 39.1555C80.37 39.1555 82.5156 42.6236 82.5291 49.2088C82.5291 55.848 80.3835 59.3026 76.929 59.3026ZM92.3294 63H97.5247L109.265 39.6413V35.3636H90.4402V39.5469H104.083V39.7358L92.3294 63ZM113.62 63H132.566V58.8168H120.529V58.6278L125.293 53.7834C130.663 48.6286 132.148 46.1186 132.148 43.0014C132.148 38.3729 128.383 34.9858 122.823 34.9858C117.344 34.9858 113.458 38.3864 113.458 43.6357H118.222C118.222 40.8153 120.003 39.0476 122.756 39.0476C125.387 39.0476 127.344 40.6534 127.344 43.2578C127.344 45.5653 125.94 47.2116 123.214 49.978L113.62 59.3835V63Z" fill="#404040"/>
<path d="M143.057 66.2727H145.114V61.625H145.199C145.523 62.2614 146.199 63.1534 147.699 63.1534C149.756 63.1534 151.295 61.5227 151.295 58.6477C151.295 55.7386 149.71 54.1591 147.693 54.1591C146.153 54.1591 145.511 55.0852 145.199 55.7159H145.08V54.2727H143.057V66.2727ZM145.074 58.6364C145.074 56.9432 145.801 55.8466 147.125 55.8466C148.494 55.8466 149.199 57.0114 149.199 58.6364C149.199 60.2727 148.483 61.4659 147.125 61.4659C145.812 61.4659 145.074 60.3295 145.074 58.6364ZM156.92 63.1705C158.955 63.1705 160.352 62.1761 160.716 60.6591L158.795 60.4432C158.517 61.1818 157.835 61.5682 156.949 61.5682C155.619 61.5682 154.739 60.6932 154.722 59.1989H160.801V58.5682C160.801 55.5057 158.96 54.1591 156.812 54.1591C154.312 54.1591 152.682 55.9943 152.682 58.6875C152.682 61.4261 154.29 63.1705 156.92 63.1705ZM154.727 57.8125C154.79 56.6989 155.614 55.7614 156.841 55.7614C158.023 55.7614 158.818 56.625 158.83 57.8125H154.727ZM162.541 63H164.598V57.8693C164.598 56.7614 165.433 55.9773 166.564 55.9773C166.911 55.9773 167.342 56.0398 167.518 56.0966V54.2045C167.331 54.1705 167.007 54.1477 166.78 54.1477C165.78 54.1477 164.945 54.7159 164.626 55.7273H164.536V54.2727H162.541V63ZM175.783 56.5795C175.499 55.1023 174.317 54.1591 172.271 54.1591C170.169 54.1591 168.737 55.1932 168.743 56.8068C168.737 58.0795 169.521 58.9205 171.197 59.267L172.686 59.5795C173.487 59.7557 173.862 60.0795 173.862 60.5739C173.862 61.1705 173.214 61.6193 172.237 61.6193C171.294 61.6193 170.68 61.2102 170.504 60.4261L168.499 60.6193C168.754 62.2216 170.101 63.1705 172.243 63.1705C174.425 63.1705 175.964 62.0398 175.97 60.3864C175.964 59.142 175.163 58.3807 173.516 58.0227L172.027 57.7045C171.141 57.5057 170.788 57.1989 170.794 56.6932C170.788 56.1023 171.442 55.6932 172.3 55.6932C173.249 55.6932 173.749 56.2102 173.908 56.7841L175.783 56.5795ZM181.473 63.1705C184.03 63.1705 185.655 61.3693 185.655 58.6705C185.655 55.9659 184.03 54.1591 181.473 54.1591C178.916 54.1591 177.291 55.9659 177.291 58.6705C177.291 61.3693 178.916 63.1705 181.473 63.1705ZM181.484 61.5227C180.07 61.5227 179.376 60.2614 179.376 58.6648C179.376 57.0682 180.07 55.7898 181.484 55.7898C182.876 55.7898 183.57 57.0682 183.57 58.6648C183.57 60.2614 182.876 61.5227 181.484 61.5227ZM189.457 57.8864C189.457 56.625 190.219 55.8977 191.304 55.8977C192.366 55.8977 193.003 56.5966 193.003 57.7614V63H195.06V57.4432C195.065 55.3523 193.872 54.1591 192.071 54.1591C190.764 54.1591 189.866 54.7841 189.469 55.7557H189.366V54.2727H187.401V63H189.457V57.8864ZM201.014 63.1705C203.048 63.1705 204.446 62.1761 204.81 60.6591L202.889 60.4432C202.611 61.1818 201.929 61.5682 201.043 61.5682C199.713 61.5682 198.832 60.6932 198.815 59.1989H204.895V58.5682C204.895 55.5057 203.054 54.1591 200.906 54.1591C198.406 54.1591 196.776 55.9943 196.776 58.6875C196.776 61.4261 198.384 63.1705 201.014 63.1705ZM198.821 57.8125C198.884 56.6989 199.707 55.7614 200.935 55.7614C202.116 55.7614 202.912 56.625 202.923 57.8125H198.821ZM217.501 56.5795C217.217 55.1023 216.036 54.1591 213.99 54.1591C211.888 54.1591 210.456 55.1932 210.462 56.8068C210.456 58.0795 211.24 58.9205 212.916 59.267L214.405 59.5795C215.206 59.7557 215.581 60.0795 215.581 60.5739C215.581 61.1705 214.933 61.6193 213.956 61.6193C213.013 61.6193 212.399 61.2102 212.223 60.4261L210.217 60.6193C210.473 62.2216 211.82 63.1705 213.962 63.1705C216.143 63.1705 217.683 62.0398 217.689 60.3864C217.683 59.142 216.882 58.3807 215.234 58.0227L213.746 57.7045C212.859 57.5057 212.507 57.1989 212.513 56.6932C212.507 56.1023 213.161 55.6932 214.018 55.6932C214.967 55.6932 215.467 56.2102 215.626 56.7841L217.501 56.5795ZM219.385 63H221.442V54.2727H219.385V63ZM220.419 53.0341C221.072 53.0341 221.607 52.5341 221.607 51.9205C221.607 51.3011 221.072 50.8011 220.419 50.8011C219.76 50.8011 219.226 51.3011 219.226 51.9205C219.226 52.5341 219.76 53.0341 220.419 53.0341ZM234.423 56.5795C234.139 55.1023 232.957 54.1591 230.912 54.1591C228.81 54.1591 227.378 55.1932 227.384 56.8068C227.378 58.0795 228.162 58.9205 229.838 59.267L231.327 59.5795C232.128 59.7557 232.503 60.0795 232.503 60.5739C232.503 61.1705 231.855 61.6193 230.878 61.6193C229.935 61.6193 229.321 61.2102 229.145 60.4261L227.139 60.6193C227.395 62.2216 228.741 63.1705 230.884 63.1705C233.065 63.1705 234.605 62.0398 234.611 60.3864C234.605 59.142 233.804 58.3807 232.156 58.0227L230.668 57.7045C229.781 57.5057 229.429 57.1989 229.435 56.6932C229.429 56.1023 230.082 55.6932 230.94 55.6932C231.889 55.6932 232.389 56.2102 232.548 56.7841L234.423 56.5795ZM240.114 63.1705C242.67 63.1705 244.295 61.3693 244.295 58.6705C244.295 55.9659 242.67 54.1591 240.114 54.1591C237.557 54.1591 235.932 55.9659 235.932 58.6705C235.932 61.3693 237.557 63.1705 240.114 63.1705ZM240.125 61.5227C238.71 61.5227 238.017 60.2614 238.017 58.6648C238.017 57.0682 238.71 55.7898 240.125 55.7898C241.517 55.7898 242.21 57.0682 242.21 58.6648C242.21 60.2614 241.517 61.5227 240.125 61.5227ZM248.098 57.8864C248.098 56.625 248.859 55.8977 249.945 55.8977C251.007 55.8977 251.643 56.5966 251.643 57.7614V63H253.7V57.4432C253.706 55.3523 252.513 54.1591 250.712 54.1591C249.405 54.1591 248.507 54.7841 248.109 55.7557H248.007V54.2727H246.041V63H248.098V57.8864ZM259.598 63.1705C262.155 63.1705 263.78 61.3693 263.78 58.6705C263.78 55.9659 262.155 54.1591 259.598 54.1591C257.041 54.1591 255.416 55.9659 255.416 58.6705C255.416 61.3693 257.041 63.1705 259.598 63.1705ZM259.609 61.5227C258.195 61.5227 257.501 60.2614 257.501 58.6648C257.501 57.0682 258.195 55.7898 259.609 55.7898C261.001 55.7898 261.695 57.0682 261.695 58.6648C261.695 60.2614 261.001 61.5227 259.609 61.5227ZM273.915 54.2727H272.102V53.5852C272.102 52.9034 272.386 52.5227 273.153 52.5227C273.477 52.5227 273.75 52.5966 273.92 52.6477L274.335 51.0568C274.068 50.9659 273.483 50.8182 272.773 50.8182C271.256 50.8182 270.045 51.6875 270.045 53.4489V54.2727H268.756V55.8636H270.045V63H272.102V55.8636H273.915V54.2727ZM277.74 63.1761C279.109 63.1761 279.928 62.5341 280.303 61.8011H280.371V63H282.348V57.1591C282.348 54.8523 280.467 54.1591 278.803 54.1591C276.967 54.1591 275.558 54.9773 275.104 56.5682L277.024 56.8409C277.229 56.2443 277.808 55.733 278.814 55.733C279.768 55.733 280.291 56.2216 280.291 57.0795V57.1136C280.291 57.7045 279.672 57.733 278.132 57.8977C276.439 58.0795 274.82 58.5852 274.82 60.5511C274.82 62.267 276.075 63.1761 277.74 63.1761ZM278.274 61.6648C277.416 61.6648 276.803 61.2727 276.803 60.517C276.803 59.7273 277.49 59.3977 278.411 59.267C278.95 59.1932 280.03 59.0568 280.297 58.8409V59.8693C280.297 60.8409 279.513 61.6648 278.274 61.6648ZM288.774 54.2727H287.053V52.1818H284.996V54.2727H283.757V55.8636H284.996V60.7159C284.984 62.358 286.178 63.1648 287.723 63.1193C288.308 63.1023 288.712 62.9886 288.933 62.9148L288.587 61.3068C288.473 61.3352 288.24 61.3864 287.984 61.3864C287.467 61.3864 287.053 61.2045 287.053 60.375V55.8636H288.774V54.2727ZM294.852 54.2727H293.131V52.1818H291.074V54.2727H289.835V55.8636H291.074V60.7159C291.062 62.358 292.256 63.1648 293.801 63.1193C294.386 63.1023 294.79 62.9886 295.011 62.9148L294.665 61.3068C294.551 61.3352 294.318 61.3864 294.062 61.3864C293.545 61.3864 293.131 61.2045 293.131 60.375V55.8636H294.852V54.2727ZM300.342 63.1705C302.376 63.1705 303.774 62.1761 304.138 60.6591L302.217 60.4432C301.939 61.1818 301.257 61.5682 300.371 61.5682C299.041 61.5682 298.161 60.6932 298.143 59.1989H304.223V58.5682C304.223 55.5057 302.382 54.1591 300.234 54.1591C297.734 54.1591 296.104 55.9943 296.104 58.6875C296.104 61.4261 297.712 63.1705 300.342 63.1705ZM298.149 57.8125C298.212 56.6989 299.036 55.7614 300.263 55.7614C301.445 55.7614 302.24 56.625 302.251 57.8125H298.149ZM312.443 63.1761C313.812 63.1761 314.631 62.5341 315.006 61.8011H315.074V63H317.051V57.1591C317.051 54.8523 315.17 54.1591 313.506 54.1591C311.67 54.1591 310.261 54.9773 309.807 56.5682L311.727 56.8409C311.932 56.2443 312.511 55.733 313.517 55.733C314.472 55.733 314.994 56.2216 314.994 57.0795V57.1136C314.994 57.7045 314.375 57.733 312.835 57.8977C311.142 58.0795 309.523 58.5852 309.523 60.5511C309.523 62.267 310.778 63.1761 312.443 63.1761ZM312.977 61.6648C312.119 61.6648 311.506 61.2727 311.506 60.517C311.506 59.7273 312.193 59.3977 313.114 59.267C313.653 59.1932 314.733 59.0568 315 58.8409V59.8693C315 60.8409 314.216 61.6648 312.977 61.6648ZM326.602 54.2727H324.415L322.403 60.7557H322.312L320.307 54.2727H318.114L321.222 63H323.494L326.602 54.2727ZM330.287 63.1761C331.656 63.1761 332.474 62.5341 332.849 61.8011H332.918V63H334.895V57.1591C334.895 54.8523 333.014 54.1591 331.349 54.1591C329.514 54.1591 328.105 54.9773 327.651 56.5682L329.571 56.8409C329.776 56.2443 330.355 55.733 331.361 55.733C332.315 55.733 332.838 56.2216 332.838 57.0795V57.1136C332.838 57.7045 332.219 57.733 330.679 57.8977C328.986 58.0795 327.366 58.5852 327.366 60.5511C327.366 62.267 328.622 63.1761 330.287 63.1761ZM330.821 61.6648C329.963 61.6648 329.349 61.2727 329.349 60.517C329.349 59.7273 330.037 59.3977 330.957 59.267C331.497 59.1932 332.577 59.0568 332.844 58.8409V59.8693C332.844 60.8409 332.06 61.6648 330.821 61.6648ZM339.02 57.8864C339.02 56.625 339.781 55.8977 340.866 55.8977C341.929 55.8977 342.565 56.5966 342.565 57.7614V63H344.622V57.4432C344.628 55.3523 343.435 54.1591 341.634 54.1591C340.327 54.1591 339.429 54.7841 339.031 55.7557H338.929V54.2727H336.963V63H339.02V57.8864ZM351.071 54.2727H349.349V52.1818H347.293V54.2727H346.054V55.8636H347.293V60.7159C347.281 62.358 348.474 63.1648 350.02 63.1193C350.605 63.1023 351.009 62.9886 351.23 62.9148L350.884 61.3068C350.77 61.3352 350.537 61.3864 350.281 61.3864C349.764 61.3864 349.349 61.2045 349.349 60.375V55.8636H351.071V54.2727ZM352.791 63H354.848V54.2727H352.791V63ZM353.825 53.0341C354.479 53.0341 355.013 52.5341 355.013 51.9205C355.013 51.3011 354.479 50.8011 353.825 50.8011C353.166 50.8011 352.632 51.3011 352.632 51.9205C352.632 52.5341 353.166 53.0341 353.825 53.0341Z" fill="#404040"/>
<path d="M466.74 103.176C468.109 103.176 468.928 102.534 469.303 101.801H469.371V103H471.348V97.1591C471.348 94.8523 469.467 94.1591 467.803 94.1591C465.967 94.1591 464.558 94.9773 464.104 96.5682L466.024 96.8409C466.229 96.2443 466.808 95.733 467.814 95.733C468.768 95.733 469.291 96.2216 469.291 97.0795V97.1136C469.291 97.7045 468.672 97.733 467.132 97.8977C465.439 98.0795 463.82 98.5852 463.82 100.551C463.82 102.267 465.075 103.176 466.74 103.176ZM467.274 101.665C466.416 101.665 465.803 101.273 465.803 100.517C465.803 99.7273 466.49 99.3977 467.411 99.267C467.95 99.1932 469.03 99.0568 469.297 98.8409V99.8693C469.297 100.841 468.513 101.665 467.274 101.665ZM473.416 103H475.473V97.8693C475.473 96.7614 476.308 95.9773 477.439 95.9773C477.786 95.9773 478.217 96.0398 478.393 96.0966V94.2045C478.206 94.1705 477.882 94.1477 477.655 94.1477C476.655 94.1477 475.82 94.7159 475.501 95.7273H475.411V94.2727H473.416V103ZM479.76 103H481.817V97.8693C481.817 96.7614 482.652 95.9773 483.783 95.9773C484.129 95.9773 484.561 96.0398 484.737 96.0966V94.2045C484.55 94.1705 484.226 94.1477 483.999 94.1477C482.999 94.1477 482.163 94.7159 481.845 95.7273H481.754V94.2727H479.76V103ZM486.104 103H488.161V94.2727H486.104V103ZM487.138 93.0341C487.791 93.0341 488.325 92.5341 488.325 91.9205C488.325 91.3011 487.791 90.8011 487.138 90.8011C486.479 90.8011 485.945 91.3011 485.945 91.9205C485.945 92.5341 486.479 93.0341 487.138 93.0341ZM498.071 94.2727H495.884L493.872 100.756H493.781L491.776 94.2727H489.582L492.69 103H494.963L498.071 94.2727ZM499.494 103H501.551V94.2727H499.494V103ZM500.528 93.0341C501.182 93.0341 501.716 92.5341 501.716 91.9205C501.716 91.3011 501.182 90.8011 500.528 90.8011C499.869 90.8011 499.335 91.3011 499.335 91.9205C499.335 92.5341 499.869 93.0341 500.528 93.0341ZM506.178 103.176C507.547 103.176 508.365 102.534 508.74 101.801H508.808V103H510.786V97.1591C510.786 94.8523 508.905 94.1591 507.24 94.1591C505.405 94.1591 503.996 94.9773 503.541 96.5682L505.462 96.8409C505.666 96.2443 506.246 95.733 507.251 95.733C508.206 95.733 508.729 96.2216 508.729 97.0795V97.1136C508.729 97.7045 508.109 97.733 506.57 97.8977C504.876 98.0795 503.257 98.5852 503.257 100.551C503.257 102.267 504.513 103.176 506.178 103.176ZM506.712 101.665C505.854 101.665 505.24 101.273 505.24 100.517C505.24 99.7273 505.928 99.3977 506.848 99.267C507.388 99.1932 508.467 99.0568 508.734 98.8409V99.8693C508.734 100.841 507.95 101.665 506.712 101.665ZM512.854 103H514.911V97.6932C514.911 96.6193 515.626 95.892 516.513 95.892C517.382 95.892 517.979 96.4773 517.979 97.375V103H519.996V97.5568C519.996 96.5739 520.581 95.892 521.575 95.892C522.405 95.892 523.064 96.3807 523.064 97.4602V103H525.126V97.142C525.126 95.1932 524.001 94.1591 522.399 94.1591C521.132 94.1591 520.166 94.7841 519.78 95.7557H519.689C519.354 94.767 518.507 94.1591 517.331 94.1591C516.161 94.1591 515.286 94.7614 514.922 95.7557H514.82V94.2727H512.854V103ZM531.02 103.17C533.577 103.17 535.202 101.369 535.202 98.6705C535.202 95.9659 533.577 94.1591 531.02 94.1591C528.463 94.1591 526.838 95.9659 526.838 98.6705C526.838 101.369 528.463 103.17 531.02 103.17ZM531.031 101.523C529.616 101.523 528.923 100.261 528.923 98.6648C528.923 97.0682 529.616 95.7898 531.031 95.7898C532.423 95.7898 533.116 97.0682 533.116 98.6648C533.116 100.261 532.423 101.523 531.031 101.523ZM543.428 103.176C544.797 103.176 545.615 102.534 545.99 101.801H546.058V103H548.036V97.1591C548.036 94.8523 546.155 94.1591 544.49 94.1591C542.655 94.1591 541.246 94.9773 540.791 96.5682L542.712 96.8409C542.916 96.2443 543.496 95.733 544.501 95.733C545.456 95.733 545.979 96.2216 545.979 97.0795V97.1136C545.979 97.7045 545.359 97.733 543.82 97.8977C542.126 98.0795 540.507 98.5852 540.507 100.551C540.507 102.267 541.763 103.176 543.428 103.176ZM543.962 101.665C543.104 101.665 542.49 101.273 542.49 100.517C542.49 99.7273 543.178 99.3977 544.098 99.267C544.638 99.1932 545.717 99.0568 545.984 98.8409V99.8693C545.984 100.841 545.2 101.665 543.962 101.665ZM558.095 103.159C560.555 103.159 562.271 101.489 562.271 99.1761C562.271 96.9375 560.714 95.3239 558.601 95.3239C557.658 95.3239 556.822 95.6989 556.391 96.2102H556.322L556.658 93.125H561.663V91.3636H554.913L554.305 97.3636L556.209 97.6761C556.601 97.2443 557.339 96.9545 558.038 96.9602C559.317 96.9659 560.237 97.9091 560.232 99.2273C560.237 100.528 559.339 101.455 558.095 101.455C557.044 101.455 556.197 100.79 556.124 99.8352H554.078C554.135 101.767 555.822 103.159 558.095 103.159ZM568.166 103H570.223V97.6932C570.223 96.6193 570.939 95.892 571.825 95.892C572.695 95.892 573.291 96.4773 573.291 97.375V103H575.308V97.5568C575.308 96.5739 575.893 95.892 576.888 95.892C577.717 95.892 578.376 96.3807 578.376 97.4602V103H580.439V97.142C580.439 95.1932 579.314 94.1591 577.712 94.1591C576.445 94.1591 575.479 94.7841 575.092 95.7557H575.001C574.666 94.767 573.82 94.1591 572.643 94.1591C571.473 94.1591 570.598 94.7614 570.234 95.7557H570.132V94.2727H568.166V103ZM582.526 103H584.582V94.2727H582.526V103ZM583.56 93.0341C584.213 93.0341 584.747 92.5341 584.747 91.9205C584.747 91.3011 584.213 90.8011 583.56 90.8011C582.901 90.8011 582.366 91.3011 582.366 91.9205C582.366 92.5341 582.901 93.0341 583.56 93.0341ZM588.754 91.3636H586.697V103H588.754V91.3636ZM593.381 103.176C594.75 103.176 595.568 102.534 595.943 101.801H596.011V103H597.989V97.1591C597.989 94.8523 596.108 94.1591 594.443 94.1591C592.608 94.1591 591.199 94.9773 590.744 96.5682L592.665 96.8409C592.869 96.2443 593.449 95.733 594.455 95.733C595.409 95.733 595.932 96.2216 595.932 97.0795V97.1136C595.932 97.7045 595.312 97.733 593.773 97.8977C592.08 98.0795 590.46 98.5852 590.46 100.551C590.46 102.267 591.716 103.176 593.381 103.176ZM593.915 101.665C593.057 101.665 592.443 101.273 592.443 100.517C592.443 99.7273 593.131 99.3977 594.051 99.267C594.591 99.1932 595.67 99.0568 595.938 98.8409V99.8693C595.938 100.841 595.153 101.665 593.915 101.665Z" fill="#D3D3D5"/>
</g>
<defs>
<filter id="filter0_d" x="0" y="0" width="654.193" height="159" filterUnits="userSpaceOnUse" color-interpolation-filters="sRGB">
<feFlood flood-opacity="0" result="BackgroundImageFix"/>
<feColorMatrix in="SourceAlpha" type="matrix" values="0 0 0 0 0 0 0 0 0 0 0 0 0 0 0 0 0 0 127 0"/>
<feOffset dx="5" dy="10"/>
<feGaussianBlur stdDeviation="12"/>
<feColorMatrix type="matrix" values="0 0 0 0 0.101961 0 0 0 0 0.635294 0 0 0 0 0.611765 0 0 0 0.24 0"/>
<feBlend mode="normal" in2="BackgroundImageFix" result="effect1_dropShadow"/>
<feBlend mode="normal" in="SourceGraphic" in2="effect1_dropShadow" result="shape"/>
</filter>
</defs>
</svg>
